<svg width="22" height="22" viewBox="0 0 22 22" fill="none" xmlns="http://www.w3.org/2000/svg">
<path d="M21.2646 1.42772C20.9799 1.19085 20.6363 1.03561 20.2704 0.978523C19.9044 0.921433 19.5298 0.964627 19.1865 1.10351L1.2656 8.33886C0.882349 8.49654 0.556115 8.76705 0.330199 9.11448C0.104282 9.4619 -0.0106336 9.86982 0.00070393 10.2841C0.0120414 10.6984 0.149096 11.0994 0.393677 11.4339C0.638258 11.7685 0.978798 12.0207 1.3701 12.1572L4.9951 13.418L7.0156 20.0996C7.04306 20.1889 7.0829 20.2738 7.13398 20.352C7.14173 20.364 7.15266 20.3729 7.1609 20.3846C7.2199 20.4669 7.29121 20.5397 7.37233 20.6003C7.3954 20.6179 7.41749 20.6344 7.44215 20.65C7.53708 20.713 7.64222 20.7591 7.75288 20.7861L7.76472 20.7871L7.77143 20.79C7.83796 20.8035 7.90568 20.8104 7.97358 20.8105C7.98011 20.8105 7.98591 20.8074 7.99238 20.8073C8.09484 20.8055 8.19641 20.7878 8.29347 20.755C8.31605 20.7473 8.3354 20.7344 8.35731 20.7251C8.42969 20.6951 8.49826 20.6567 8.5616 20.6106C8.61232 20.5678 8.66306 20.5251 8.71382 20.4824L11.416 17.499L15.4462 20.6211C15.8011 20.8973 16.2378 21.0474 16.6875 21.0478C17.1586 21.0472 17.6153 20.8846 17.9808 20.5874C18.3464 20.2901 18.5987 19.8762 18.6953 19.415L21.958 3.39843C22.0319 3.03795 22.0065 2.66415 21.8843 2.31702C21.7622 1.96989 21.548 1.66249 21.2646 1.42772ZM8.3701 13.7363C8.23144 13.8744 8.13666 14.0504 8.09764 14.2422L7.78813 15.7462L7.00407 13.1531L11.0693 11.0362L8.3701 13.7363ZM16.6719 19.04L11.9092 15.3505C11.7099 15.1966 11.4599 15.1233 11.2091 15.1454C10.9583 15.1675 10.7249 15.2833 10.5556 15.4697L9.69023 16.4249L9.99607 14.9384L17.0791 7.85543C17.2481 7.68659 17.3511 7.46278 17.3694 7.22455C17.3877 6.98632 17.3201 6.74941 17.1788 6.55675C17.0375 6.36408 16.8318 6.22839 16.5991 6.17426C16.3664 6.12014 16.122 6.15115 15.9101 6.26168L5.74485 11.5543L2.02049 10.1914L19.999 2.99899L16.6719 19.04Z" fill="#DF953A"/>
</svg>
